<?xml version="1.0" standalone="no"?><!DOCTYPE svg PUBLIC "-//W3C//DTD SVG 1.1//EN" "http://www.w3.org/Graphics/SVG/1.1/DTD/svg11.dtd"><svg t="1770559880945" class="icon" viewBox="0 0 1131 1024" version="1.1" xmlns="http://www.w3.org/2000/svg" p-id="1747" xmlns:xlink="http://www.w3.org/1999/xlink" width="220.8984375" height="200"><path d="M733.866667 347.022222H142.222222v413.392593H58.785185C26.548148 760.414815 0 733.866667 0 701.62963V286.340741C0 254.103704 26.548148 227.555556 58.785185 227.555556h616.296296c32.237037 0 58.785185 26.548148 58.785186 58.785185v60.681481z" fill="#9FD4FF" p-id="1748"></path><path d="M651.264 941.909333h-426.666667c-17.066667 0-28.444444-13.274074-28.444444-30.34074 0-17.066667 13.274074-30.340741 28.444444-30.340741h424.770371c17.066667 0 28.444444 13.274074 28.444444 30.340741 1.896296 17.066667-11.377778 30.340741-26.548148 30.34074z" fill="#2B95FF" opacity=".63" p-id="1749"></path><path d="M746.078815 299.064889H129.782519C97.545481 299.064889 70.997333 325.613037 70.997333 357.850074V773.138963c0 32.237037 26.548148 58.785185 58.785186 58.785185h616.296296c32.237037 0 58.785185-26.548148 58.785185-58.785185V357.850074c0-32.237037-26.548148-58.785185-58.785185-58.785185z m-94.814815 322.37037c-3.792593 3.792593-9.481481 5.688889-15.17037 7.585185-5.688889 0-11.377778-1.896296-15.170371-5.688888-11.377778-11.377778-26.548148-22.755556-41.718518-20.85926-9.481481 1.896296-17.066667 9.481481-28.444445 22.755556s-24.651852 30.340741-45.511111 30.340741h-1.896296c-36.02963-1.896296-51.2-41.718519-68.266667-83.437037-5.688889-15.17037-15.17037-41.718519-22.755555-49.303704-3.792593 5.688889-9.481481 17.066667-15.170371 24.651852-13.274074 24.651852-32.237037 58.785185-66.37037 77.748148-28.444444 15.17037-62.577778 15.17037-98.607407 0-7.585185-1.896296-13.274074-9.481481-13.274075-17.066667-1.896296-7.585185 1.896296-15.17037 7.585186-20.859259 5.688889-5.688889 15.17037-5.688889 22.755555-3.792593 24.651852 9.481481 45.511111 9.481481 62.577778 0 22.755556-11.377778 36.02963-37.925926 47.407407-58.785185 13.274074-24.651852 26.548148-51.2 54.992593-49.303704 32.237037 1.896296 47.407407 37.925926 62.577778 77.748149 7.585185 17.066667 18.962963 49.303704 28.444444 54.992592 3.792593-1.896296 7.585185-9.481481 11.377778-13.274074 11.377778-15.17037 26.548148-34.133333 54.992593-39.822222 26.548148-3.792593 53.096296 5.688889 79.644444 32.237037 9.481481 11.377778 9.481481 24.651852 0 34.133333z" fill="#2B95FF" p-id="1750"></path><path d="M567.826963 323.716741a214.281481 212.385185 90 1 0 424.77037 0 214.281481 212.385185 90 1 0-424.77037 0Z" fill="#459CFC" p-id="1751"></path></svg>